# xmcd CD database file
#
# Track frame offsets:
#	150
#	14230
#	28488
#	43936
#	58098
#	71800
#	86932
#	103907
#	121772
#	136955
#	155475
#	170357
#
# Disc length: 2470 seconds
#
# Revision: 0
# Processed by: cddbd v1.5.2PL0 Copyright (c) Steve Scherf et al.
# Submitted via: CDex 1.51
#
DISCID=b609a40c
DTITLE=Ernie Oldfield - I got what I am
DYEAR=2008
DGENRE=Country
TTITLE0=Ernie Oldfield - I got what I am
TTITLE1=Ernie Oldfield - Loving you, loving me
TTITLE2=Ernie Oldfield - Bread and Beans
TTITLE3=Ernie Oldfield - Beautiful Lady
TTITLE4=Ernie Oldfield - Jacky Joker
TTITLE5=Ernie Oldfield - Prisoner in Blues
TTITLE6=Ernie Oldfield - His Belly's full of Beer
TTITLE7=Ernie Oldfield - When a woman loves a man
TTITLE8=Ernie Oldfield - My honey needs no money
TTITLE9=Ernie Oldfield - Hold me tight
TTITLE10=Ernie Oldfield - Boy of Texas
TTITLE11=Ernie Oldfield - Key of your heart
EXTD=YEAR: 2008
EXTT0=
EXTT1=
EXTT2=
EXTT3=
EXTT4=
EXTT5=
EXTT6=
EXTT7=
EXTT8=
EXTT9=
EXTT10=
EXTT11=
PLAYORDER=
